/* XPM */
static char *_68b2ae0a4e24058ca68e8be8496fac7CedfqstuyEZUSSoa[] = {
/* columns rows colors chars-per-pixel */
"64 64 11 1 ",
"  c black",
". c #141413",
"X c #2F1C17",
"o c #28221F",
"O c #382B2F",
"+ c #2F3233",
"@ c #383F40",
"# c #3F4748",
"$ c #464D4F",
"% c #536265",
"& c #62797E",
/* pixels */
"$$$$$$$$$$$$$$$$$@$$$$@@+++.@@@@@$$$$$$$$$$$$$$$$$$$$$$$$$$@$@$$",
"@@@@@@@@@@@@@@@@@@@@@@@++++.@@+++@@@@@@@@@@@@@@@@@@@@@@@@@@@@@@@",
"@@@@@@@@@@@@@@@@@@@@@@@+++o.@@+++@@@@@@@@@@@@@@@@@@@@@@@@@@@@@@@",
"@@@@XXXXXXOXOOOOOOO@@@@++++.@@+++@@@XXXXXXXXXXXXOXOOOOXXXOO@@@@@",
"@@@XO@@@@@@@@@@@@@@@@@@+++o.@@+++@@XO@@@@@@@@@@@@@@@@@@@@@@@@@@@",
"@@@X@@@@@@@@@@@@@@@@$@@+++o.@@+++@@X@@@@@@@@@@@@@@@@@@@@@@@@$@@@",
"@@@X@@@@@@@@@@@@@@@@$@@+++o.@@+++@@X@@@@@@@@@@@@@@@@@@@@@@@@$@@@",
"$$$O$$$$$$$$$$$$$$$$%$$@@@+o.%@@@$$O$$$$$$$$$$$$$$$$$$$$$$$$%$$$",
"@@@X@@@@@@@@@@@@@@@@$@@+++o.@@+++@@X@@@@@@@@@@@@@@@@@@@@@@@@$@@@",
"$$$O$$$$$$$$$$$$$$$$%$$@@@+o.%@@@$$@$$$$$$$$$$$$$$$$$$$$$$$$%$$$",
"$$$O$$$$$$$$$$$$$$$$&$$@@@+.@%@@@$$@$$$$$$$$$$$$$$$$$$$$$$$$&$$$",
"$$$O$$$$$$$$$$$$$$$$%$$@@@+.@%@@@$$$$$$$$$$$$$$$$$$$$$$$$$$$%$$$",
"$$$O$$$$$$$$$$$$$$$$&$$@@@+o.%@@@$$$$%%%&%&&&&%$$$$$$$$$$$$$&$$$",
"$$$O$$$$$$$$$$$$$$$$&$$@@@+o.%@@@$$$$$$$$$$$$$$%$$$$$$$$$$$$&$$$",
"$$$O$$$$$$$$$$$$$$$$&$$@@@+o.%@@@$$$$$$$$$$$$$$$%$$$$$$$$$$$&$$$",
"$$$@$$$$$$$$$$$$$$$$&$$@@@+..$@@@@@@@@@@@@@@@#$$$%$$$$$$$$$$&$$$",
"$$$@$$$$$$$$$$$$$$$$&$$@@@+o.%@@@@@@@@@@@@@@@@@$$$%$$$$$$$$$&$$$",
"$$$$$$$$$$$$$$$$$$$%&$$@@@@..$@@@@@@@@@@@@@@@@@#$$$%$$$$$$$%&$$$",
"$$$$$%%%%%&%&%&&&&&&$$$@@@+o.$$$$$$$$@$@$@@@@@@@$$$$%&&&&&&&$$$$",
"$$$$$$$$$$$$$$$$$$$$$$$@@@@oooooooooo.o...@+@@@@$$$$$$$$$$$$$$$$",
"$$$$$$$$$$$$$$$$$$$$$$$@@@@+oooooooo.o.o..@ @@@@$$$$$$$$$$$$$$$$",
"$$$$OOOOOO@O@@@@@@@$$$$@@@@@@@@@@@@@@@@@@o.@$@@@$$$OOOO@@@@$$$$$",
"$$$O@$$$$$$$$$$$$$$$$$$#@@@@@@@@@@@@@@@@@@.@%@@@$$O$$$$$$$$$$$$$",
"$$$O$$$$$$$$$$$$$$$$%$$$@@@@@@@@@@@@@@@@@+.@%@@@$$O$$$$$$$$$%$$$",
"$$$O$$$$$$$$$$$$$$$$$&$$$#@@@@@@@@@@@@@@@@.@%@@@$$O$$$$$$$$$%$$$",
"$$$O$$$$$$$$$$$$$$$$$$%$$$$$$$$$$$$$$$@@@+.@%@@@$$O$$$$$$$$$%$$$",
"$$$@$$$$$$$$$$$$$$$$$$$%$$$$$$$$$$$$$$@@@+.@%@@@$$O$$$$$$$$$&$$$",
"$$$O$$$$$$$$$$$$$$$$$$$$@OOOOOO@@@$$$$@@@+.@%@@@$$O$$$$$$$$$%$$$",
"$$$@$$$$$$$$$$$$$$$$$$$$$$$$$$$$$$$$$$@@@+.@%@@@$$O$$$$$$$$$&$$$",
"$$$O$$$$$$$$$$$$$$$$$$$$$$$$$$$$$$$%$$@@@+.@$@@@$$O$$$$$$$$$&$$$",
"$$$@$$$$$$$$$$$$$$$$$$$$$$$$$$$$$$$%$$@@@+..%@@@$$@$$$$$$$$$&$$$",
"$$$O$$$$$$$$$$$$$$$$$$$$$$$$$$$$$$$%$$@@@+.o$@@@$$O$$$$$$$$$&$$$",
"$$$O$$$$$$$$$$$$$$$$$$$$$$$$$$$$$$$%$$@@@+o.$@@@$$@$$$$$$$$$%$$$",
"$$$O$$$$$$$$$$$$$$$$$$$$$$$$$$$$$$$&$$@@@+.o$@@@$$O$$$$$$$$$&$$$",
"$$$O$$$$$$$$$$$$$$$$$$$$$$$$$$$$$$$&$$@@@+o.$@@@$$@$$$$$$$$$&$$$",
"$$$O$$$$$$$$$$$$$$$$$$$$$$$$$$$$$$%&$$@@@+.o$@@@$$@$$$$$$$$$&$$$",
"$$$O$$$$$$$$$$$$$&&&&&&&&&&&&&&&&&&$$$@@@@oo$@@@$$@$$$$$$$$$&$$$",
"$$$@$$$$$$$$$$$$&$$$$$$$$$$$$$$$$$$$$$@@@+.o$@@@$$@$$$$$$$$$&$$$",
"$$$O$$$$$$$$$$$&$$$$$$$$$$$$$$$$$$$$$$@@@@oo$@@@$$@$$$$$$$$$&$$$",
"$$$@$$$$$$$$$$&$$$#@@@@@@@@@@@@@@@@@@@@@@+.o@@@@$$@$$$$$$$$$&$$$",
"$$$@$$$$$$$$$&$$$@@@@@@@@@@@@@@@@@@@@@@@@@oo$@@@$$@$$$$$$$$$&$$$",
"$$$$$$$$$$$$&$$$#@@@@@@@@@@@@@@@@@@@@@@@@@.o@@@@$$$$$$$$$$$%&$$$",
"$$$$$%%&&&&&$$$$@@@@@@@$$$$$$$$$$$$@$@$@@ooo$@@@$$$$%%%&&&&&$$$$",
"$$$$$$$$$$$$$$$$@@@@+..oooooo.o.o.o.o.o.oooo@@@@$$$$$$$$$$$$$$$$",
"$$$$$$$$$$$$$$$$@@@@. .ooooo.o.o.o.o.o.oooo+@@@@$$$$$$$$$$$$$$$$",
"$$$$OOOO@@@@$$$$@@@@.@@@@@@@@@@@@@@@@@@@@@@@@@@@$$$$OOO@@@@$$$$$",
"$$$O@$$$$$$$$$$$@@@+.@@@@@@@@@@@@@@@@@@@@@@@@@@#$$$O$$$$$$$$$$$$",
"$$$O$$$$$$$$$%$$@@@@.@$@@@@@@@@@@@@@@@@@@@@@@@@$$$O$$$$$$$$$%$$$",
"$$$O$$$$$$$$$%$$@@@+.@@@@@@@@@@@@@@@@@@@@@@@@#$$$O$$$$$$$$$$%$$$",
"$$$O$$$$$$$$$%$$@@@+.@$@@@$$$$$$$$$$$$$$$$$$$$$$O$$$$$$$$$$$%$$$",
"$$$@$$$$$$$$$&$$@@@+.@%@@@$$$$$$$$$$$$$$$$$$$$$@$$$$$$$$$$$$&$$$",
"$$$O$$$$$$$$$&$$@@@+o.%@@@$$$OOOOOOOOOO@O@@@@@@$$$$$$$$$$$$$%$$$",
"$$$@$$$$$$$$$&$$@@@+. %@@@$$O@$$$$$$$$$$$$$$$$$$$$$$$$$$$$$$&$$$",
"$$$@$$$$$$$$$&$$@@@+o.$@@@$$O$$$$$$$$$$$$$$$$$$$$$$$$$$$$$$$&$$$",
"$$$@$$$$$$$$$&$$@@@+.@%@@@$$O$$$$$$$$$$$$$$$$$$$$$$$$$$$$$$$&$$$",
"$$$O$$$$$$$$$%$$@@@oo.@@@@$$O$$$$$$$$$$$$$$$$$$$$$$$$$$$$$$$&$$$",
"$$$@$$$$$$$$$&$$@@@+o.$@@@$$@$$$$$$$$$$$$$$$$$$$$$$$$$$$$$$$&$$$",
"$$$@$$$$$$$$$&$$@@@oo.@@@@$$@$$$$$$$$$$$$$$$$$$$$$$$$$$$$$$$&$$$",
"$$$@$$$$$$$$$&$$@@@o..@@@@$$@$$$$$$$$$$$$$$$$$$$$$$$$$$$$$$$&$$$",
"$$$$$$$$$$$$%&$$@@@oo.@@@@$$$$$$$$$$$$$$$$$$$$$$$$$$$$$$$$$%&$$$",
"$$$$$%%%%&&&&$$$@@@o..@@@@$$$$%%%%%%&&&&&%&%&&&&&&&&&&&&&&&&$$$$",
"$$$$$$$$$$$$$$$$@@@oo.@@@@$$$$$$$$$$$$$$$$$$$$$$$$$$$$$$$$$$$$$$",
"$$$$$$$$$$$$$$$$@@@ooo@@@@$$$$$$$$$$$$$$$$$$$$$$$$$$$$$$$$$$$$$$",
"OXXXXXXOXOXOOOOOXXX....X....O.OOOOOOOOOOXOXOOXOXOXXXXXXOXOXOOOOO"
};
