/* XPM */
static char *d99bd5a518504b7f878bce603eb3ad8ctiCOaZ47p3Z1XowW[] = {
/* columns rows colors chars-per-pixel */
"64 64 39 1 ",
"  c black",
". c #383F40",
"X c #383F40",
"o c #464D4F",
"O c #2F3233",
"+ c #383F40",
"@ c #383F3F",
"# c #2F1C17",
"$ c #382B2F",
"% c None",
"& c #536265",
"* c black",
"= c black",
"- c black",
"; c black",
": c black",
"> c black",
", c #28221F",
"< c #29221F",
"1 c #28221F",
"2 c #141413",
"3 c #28221F",
"4 c #141413",
"5 c #141413",
"6 c #141413",
"7 c black",
"8 c #28221F",
"9 c #141413",
"0 c black",
"q c black",
"w c #141413",
"e c #28221F",
"r c #141413",
"t c #62797E",
"y c #28221F",
"u c #28221F",
"i c #2F3233",
"p c black",
"a c black",
/* pixels */
"                                                       .XXXooooo",
"                                                       .OOOXXXXX",
"                                                       +OOOXXXXX",
"                                                       @OOOXXX##",
"                                                       @OOOXX#$X",
"                                                       %OOOXX#XX",
"                                                       XOOOXX#XX",
"                                                       &XXXoo$oo",
"                                                       XOOOXX#XX",
"                                                       &XXXooXoo",
"                                                      *&XXXooXoo",
"                                                      =&XXXooooo",
"                                                      =&XXXoooo&",
"                                                      -&XXXooooo",
"                                                      ;&XXXooooo",
"                                                      ;oXXXXXXXX",
"                                                      :&XXXXXXXX",
"                                                      >oXXXXXXXX",
"                                                      >ooooooooX",
",<1234567O                                                      ",
"8898989990                                                      ",
"XXXXXXX890                                                      ",
"XXXXXXXX90                                                      ",
"XXXXXXXO90                                                      ",
"XXXXXXXX90                                                      ",
"ooooXXXO90                                                      ",
"ooooXXXO9q                                                      ",
"ooooXXXO9q                                                      ",
"ooooXXXO9q                                                      ",
"o&ooXXXO9q                                                      ",
"o&ooXXXO9w                                                      ",
"o&ooXXXO9e                                                      ",
"o&ooXXXO8r                                                      ",
"otooXXXO9y                                                      ",
"otooXXXO8r                                                      ",
"&tooXXXO9y                                                      ",
"toooXXXX8y                                                      ",
"ooooXXXO9y                                                      ",
"ooooXXXX8y                                                      ",
"XXXXXXXO9u                                                      ",
"XXXXXXXX8u                                                      ",
"XXXXXXXX9u                                                      ",
"oXoXoXX88u                                                      ",
"898989888u                                                      ",
"989898888i                                                      ",
"                                               pXXXXXXXXXXXXXXXX",
"                                               pXXXXXXXXXXXXXXXX",
"                                               aoXXXXXXXXXXXXXXX",
"                                               >XXXXXXXXXXXXXXXX",
"                                               >oXXXoooooooooooo",
"                                               :&XXXoooooooooooo",
"                                               ;&XXXooo$$$$$$$$$",
"                                               ;&XXXoo$Xoooooooo",
"                                               -oXXXoo$ooooooooo",
"                                               -&XXXoo$ooooooooo",
"                                               =XXXXoo$ooooooooo",
"                                               *oXXXooXooooooooo",
"                                               *XXXXooXooooooooo",
"                                                XXXXooXooooooooo",
"                                                XXXXoooooooooooo",
"                                                XXXXoooo&&&&&&tt",
"                                                %XXXoooooooooooo",
"                                                @XXXoooooooooooo",
"                                                r#9999$9$$$$$$$$"
};
